# xmcd
#
# Track frame offsets:
#	150
#	14263
#	26659
#	39300
#	58779
#	72244
#	90262
#	104943
#	116969
#	131526
#
# Disc length: 1979 seconds
#
# Revision: 0
# Processed by: cddbd v1.5.2PL0 Copyright (c) Steve Scherf et al.
# Submitted via: dBpowerAMP V4.0
#
DISCID=8807b90a
DTITLE=Tender Trap - Ten Songs About Girls
DYEAR=2012
DGENRE=Pop
TTITLE0=Train From King's Cross Station
TTITLE1=MBV
TTITLE2=Could This Be The Last Time?
TTITLE3=Leaving Christmas Day
TTITLE4=Step One
TTITLE5=Memorabilia
TTITLE6=May Day
TTITLE7=Ode
TTITLE8=Broken Doll
TTITLE9=Love Is Hard Enough
EXTD=
EXTT0=
EXTT1=
EXTT2=
EXTT3=
EXTT4=
EXTT5=
EXTT6=
EXTT7=
EXTT8=
EXTT9=
PLAYORDER=
